REM DIRINDEX 1\2,1\4,1\5,1\6,1\7,1\8,1\3\9,1\3\10,1\3\11,1\12
REM DIRNAME cjc055,folder01,folder02,folder03,folder04,folder05,folder06,folder07,folder08,folder09,folder10,folder11
TITLE ""
FILE "CD-ATrack03.mp3" MP3
  TRACK 01 AUDIO
    TITLE "12:cjc055_0075"
    INDEX 01 00:00:00
  TRACK 02 AUDIO
    TITLE "2:cjc055_0076"
    INDEX 01 00:01:68
  TRACK 03 AUDIO
    TITLE "2:cjc055_0077"
    INDEX 01 00:03:02
  TRACK 04 AUDIO
    TITLE "2:cjc055_0078"
    INDEX 01 00:04:25
  TRACK 05 AUDIO
    TITLE "2:cjc055_0079"
    INDEX 01 00:06:22
  TRACK 06 AUDIO
    TITLE "2:cjc055_0080"
    INDEX 01 00:07:35
  TRACK 07 AUDIO
    TITLE "2:cjc055_0081"
    INDEX 01 00:08:62
  TRACK 08 AUDIO
    TITLE "2:cjc055_0082"
    INDEX 01 00:10:45
  TRACK 09 AUDIO
    TITLE "2:cjc055_0083"
    INDEX 01 00:11:50
  TRACK 10 AUDIO
    TITLE "2:cjc055_0084"
    INDEX 01 00:13:04
  TRACK 11 AUDIO
    TITLE "2:cjc055_0085"
    INDEX 01 00:14:68
  TRACK 12 AUDIO
    TITLE "2:cjc055_0086"
    INDEX 01 00:16:06
  TRACK 13 AUDIO
    TITLE "2:cjc055_0087"
    INDEX 01 00:17:35
  TRACK 14 AUDIO
    TITLE "2:cjc055_0088"
    INDEX 01 00:19:24
  TRACK 15 AUDIO
    TITLE "2:cjc055_0089"
    INDEX 01 00:20:34
  TRACK 16 AUDIO
    TITLE "2:cjc055_0090"
    INDEX 01 00:21:51
  TRACK 17 AUDIO
    TITLE "2:cjc055_0091"
    INDEX 01 00:23:36
  TRACK 18 AUDIO
    TITLE "2:cjc055_0092"
    INDEX 01 00:24:53
  TRACK 19 AUDIO
    TITLE "2:cjc055_0093"
    INDEX 01 00:26:01
  TRACK 20 AUDIO
    TITLE "2:cjc055_0094"
    INDEX 01 00:27:61
  TRACK 21 AUDIO
    TITLE "2:cjc055_0095"
    INDEX 01 00:28:74
  TRACK 22 AUDIO
    TITLE "2:cjc055_0096"
    INDEX 01 00:30:26
  TRACK 23 AUDIO
    TITLE "2:cjc055_0097"
    INDEX 01 00:32:21
  TRACK 24 AUDIO
    TITLE "2:cjc055_0098"
    INDEX 01 00:33:36
  TRACK 25 AUDIO
    TITLE "2:cjc055_0099"
    INDEX 01 00:34:65
  TRACK 26 AUDIO
    TITLE "2:cjc055_0100"
    INDEX 01 00:36:62
  TRACK 27 AUDIO
    TITLE "2:cjc055_0101"
    INDEX 01 00:38:24
  TRACK 28 AUDIO
    TITLE "2:cjc055_0102"
    INDEX 01 00:39:64
  TRACK 29 AUDIO
    TITLE "2:cjc055_0103"
    INDEX 01 00:41:45
  TRACK 30 AUDIO
    TITLE "2:cjc055_0104"
    INDEX 01 00:43:01
  TRACK 31 AUDIO
    TITLE "2:cjc055_0105"
    INDEX 01 00:44:28
  TRACK 32 AUDIO
    TITLE "2:cjc055_0106"
    INDEX 01 00:46:17
  TRACK 33 AUDIO
    TITLE "2:cjc055_0107"
    INDEX 01 00:47:32
  TRACK 34 AUDIO
    TITLE "2:cjc055_0108"
    INDEX 01 00:48:59
  TRACK 35 AUDIO
    TITLE "2:cjc055_0109"
    INDEX 01 00:50:56
  TRACK 36 AUDIO
    TITLE "2:cjc055_0110"
    INDEX 01 00:51:67
  TRACK 37 AUDIO
    TITLE "2:cjc055_0111"
    INDEX 01 00:53:17
  TRACK 38 AUDIO
    TITLE "2:cjc055_0112"
    INDEX 01 00:55:06
  TRACK 39 AUDIO
    TITLE "2:cjc055_0113"
    INDEX 01 00:56:20
  TRACK 40 AUDIO
    TITLE "2:cjc055_0114"
    INDEX 01 00:57:45
  TRACK 41 AUDIO
    TITLE "2:cjc055_0115"
    INDEX 01 00:59:45
  TRACK 42 AUDIO
    TITLE "2:cjc055_0116"
    INDEX 01 01:00:57
  TRACK 43 AUDIO
    TITLE "2:cjc055_0117"
    INDEX 01 01:02:12
  TRACK 44 AUDIO
    TITLE "2:cjc055_0118"
    INDEX 01 01:03:73
  TRACK 45 AUDIO
    TITLE "2:cjc055_0119"
    INDEX 01 01:05:11
  TRACK 46 AUDIO
    TITLE "2:cjc055_0120"
    INDEX 01 01:06:38
  TRACK 47 AUDIO
    TITLE "2:cjc055_0121"
    INDEX 01 01:08:33
  TRACK 48 AUDIO
    TITLE "2:cjc055_0122"
    INDEX 01 01:09:44
  TRACK 49 AUDIO
    TITLE "2:cjc055_0123"
    INDEX 01 01:10:73
  TRACK 50 AUDIO
    TITLE "2:cjc055_0124"
    INDEX 01 01:12:68
  TRACK 51 AUDIO
    TITLE "2:cjc055_0125"
    INDEX 01 01:14:08
  TRACK 52 AUDIO
    TITLE "2:cjc055_0126"
    INDEX 01 01:15:42
  TRACK 53 AUDIO
    TITLE "2:cjc055_0127"
    INDEX 01 01:17:32
  TRACK 54 AUDIO
    TITLE "2:cjc055_0128"
    INDEX 01 01:18:43
  TRACK 55 AUDIO
    TITLE "2:cjc055_0129"
    INDEX 01 01:19:62
  TRACK 56 AUDIO
    TITLE "2:cjc055_0130"
    INDEX 01 01:21:53
  TRACK 57 AUDIO
    TITLE "2:cjc055_0131"
    INDEX 01 01:22:68
  TRACK 58 AUDIO
    TITLE "2:cjc055_0132"
    INDEX 01 01:24:32
  TRACK 59 AUDIO
    TITLE "2:cjc055_0133"
    INDEX 01 01:26:40
  TRACK 60 AUDIO
    TITLE "2:cjc055_0134"
    INDEX 01 01:27:51
  TRACK 61 AUDIO
    TITLE "2:cjc055_0135"
    INDEX 01 01:29:07
  TRACK 62 AUDIO
    TITLE "2:cjc055_0136"
    INDEX 01 01:30:71
  TRACK 63 AUDIO
    TITLE "2:cjc055_0137"
    INDEX 01 01:32:04
  TRACK 64 AUDIO
    TITLE "2:cjc055_0138"
    INDEX 01 01:33:31
  TRACK 65 AUDIO
    TITLE "2:cjc055_0139"
    INDEX 01 01:35:27
  TRACK 66 AUDIO
    TITLE "2:cjc055_0140"
    INDEX 01 01:36:39
  TRACK 67 AUDIO
    TITLE "2:cjc055_0141"
    INDEX 01 01:37:60
  TRACK 68 AUDIO
    TITLE "2:cjc055_0142"
    INDEX 01 01:39:55
  TRACK 69 AUDIO
    TITLE "2:cjc055_0143"
    INDEX 01 01:40:62
  TRACK 70 AUDIO
    TITLE "2:cjc055_0144"
    INDEX 01 01:42:20
  TRACK 71 AUDIO
    TITLE "2:cjc055_0145"
    INDEX 01 01:44:13
  TRACK 72 AUDIO
    TITLE "2:cjc055_0146"
    INDEX 01 01:45:28
  TRACK 73 AUDIO
    TITLE "2:cjc055_0147"
    INDEX 01 01:46:53
  TRACK 74 AUDIO
    TITLE "2:cjc055_0148"
    INDEX 01 01:48:54
  TRACK 75 AUDIO
    TITLE "2:cjc055_0149"
    INDEX 01 01:49:63
  TRACK 76 AUDIO
    TITLE "2:cjc055_0150"
    INDEX 01 01:51:07
  TRACK 77 AUDIO
    TITLE "2:cjc055_0151"
    INDEX 01 01:52:73
  TRACK 78 AUDIO
    TITLE "2:cjc055_0152"
    INDEX 01 01:54:21
  TRACK 79 AUDIO
    TITLE "2:cjc055_0153"
    INDEX 01 01:55:46
  TRACK 80 AUDIO
    TITLE "0:"
    INDEX 01 01:57:02
